<svg width="96" height="125" viewBox="0 0 96 125" fill="none" xmlns="http://www.w3.org/2000/svg">
<path fill-rule="evenodd" clip-rule="evenodd" d="M81.4831 49L50.9831 65.5V87.3252C50.9831 92.1252 52.3164 92.3252 52.9831 91.8252C64.3164 85.6585 87.6831 72.9252 90.4831 71.3252C93.2831 69.7252 94.9831 67.6585 94.9831 66.8252V24.3252C95.3324 23.2773 93.1653 21.899 91.9444 21.1224C91.7672 21.0097 91.6099 20.9097 91.4831 20.8252C81.8164 15.6585 60.9831 4.52516 54.9831 1.32516C51.7831 -1.07484 50.9831 0.325164 50.9831 1.32516V27.5L81.4831 42V49ZM50.9831 57V35L73.9831 46L50.9831 57ZM13.5376 81L44.0376 97.5V119.325C44.0376 124.125 42.7043 124.325 42.0376 123.825C30.7043 117.659 7.33761 104.925 4.53761 103.325C1.73761 101.725 0.0376131 99.6585 0.0376131 98.8252V56.3252C-0.311683 55.2773 1.85543 53.899 3.07634 53.1224L3.07641 53.1224C3.25361 53.0097 3.41087 52.9097 3.53761 52.8252C13.2043 47.6585 34.0376 36.5252 40.0376 33.3252C43.2376 30.9252 44.0376 32.3252 44.0376 33.3252V59.5L13.5376 74V81ZM44.0376 89V67L21.0376 78L44.0376 89Z" fill="white"/>
</svg>
